<svg width="24" height="24" viewBox="0 0 24 24" fill="none" xmlns="http://www.w3.org/2000/svg">
<path d="M5.57013 7.88701C5.28438 6.00226 6.61488 4.30501 8.64738 3.68401C9.00816 3.57352 9.39751 3.6048 9.73602 3.77148C10.0745 3.93816 10.3367 4.22768 10.4691 4.58101L11.1209 6.32101C11.2258 6.601 11.2447 6.90597 11.1751 7.19677C11.1055 7.48756 10.9505 7.75091 10.7301 7.95301L8.79138 9.73051C8.69576 9.81836 8.62451 9.92945 8.58456 10.053C8.5446 10.1765 8.53731 10.3083 8.56338 10.4355L8.58063 10.5135L8.62863 10.7093C8.67138 10.875 8.73588 11.1075 8.82663 11.3843C9.00663 11.9355 9.29388 12.6765 9.72138 13.4168C10.1489 14.1578 10.6469 14.7765 11.0339 15.2085C11.2354 15.4331 11.4461 15.6492 11.6654 15.8565L11.7254 15.9113C11.8223 15.9973 11.9398 16.0567 12.0665 16.0838C12.1932 16.1109 12.3248 16.1047 12.4484 16.0658L14.9579 15.276C15.2429 15.1863 15.5483 15.1838 15.8348 15.2688C16.1213 15.3537 16.3759 15.5224 16.5659 15.753L17.7531 17.1953C18.2481 17.7953 18.1896 18.6765 17.6204 19.2068C16.0649 20.6573 13.9259 20.9543 12.4379 19.758C10.6139 18.2867 9.07631 16.4924 7.90188 14.4645C6.71765 12.4383 5.92655 10.2067 5.57013 7.88701ZM10.1346 10.5345L11.7441 9.05851C12.1846 8.65429 12.4943 8.12768 12.6334 7.54624C12.7725 6.96481 12.7347 6.35507 12.5249 5.79526L11.8724 4.05526C11.6062 3.34436 11.0789 2.76173 10.398 2.42616C9.71707 2.09058 8.93382 2.02732 8.20788 2.24926C5.68488 3.02251 3.65838 5.28451 4.08738 8.11201C4.38738 10.086 5.07963 12.597 6.60513 15.219C7.87193 17.4055 9.5303 19.3402 11.4974 20.9265C13.7286 22.7198 16.7091 22.1078 18.6434 20.304C19.1966 19.7882 19.5323 19.0808 19.5821 18.3261C19.6318 17.5713 19.3919 16.826 18.9111 16.242L17.7239 14.7998C17.3439 14.3382 16.8346 14.0007 16.2615 13.8306C15.6883 13.6605 15.0774 13.6655 14.5071 13.845L12.4244 14.5005C12.3449 14.418 12.2519 14.3198 12.1506 14.2065C11.7226 13.733 11.3439 13.2171 11.0204 12.6668C10.7055 12.1116 10.4479 11.5258 10.2516 10.9185C10.21 10.7913 10.171 10.6633 10.1346 10.5345Z" fill="white"/>
</svg>
