<svg width="100" height="60" viewBox="0 0 100 60" fill="none" xmlns="http://www.w3.org/2000/svg">
<path d="M64.9869 29.9937C64.9869 37.9379 58.2649 44.378 49.9728 44.378C41.6808 44.378 34.9588 37.9379 34.9588 29.9937C34.9588 22.0493 41.6808 15.6093 49.9728 15.6093C58.2649 15.6093 64.9869 22.0494 64.9869 29.9937ZM50 0.043335C41.4146 0.0814183 32.5155 2.1715 24.0913 6.17309C17.8365 9.26659 11.7408 13.6311 6.4495 19.0182C3.85067 21.7681 0.535917 25.7499 0 29.9983C0.0633333 33.6784 4.01083 38.2208 6.4495 40.9786C11.4114 46.1541 17.3483 50.3968 24.0913 53.8268C31.9473 57.6394 40.6427 59.8345 50 59.9566C58.5936 59.9179 67.4907 57.8038 75.9055 53.8268C82.1603 50.7333 88.2591 46.3657 93.5505 40.9786C96.1492 38.2287 99.464 34.2468 100 29.9983C99.9367 26.3183 95.9892 21.7758 93.5505 19.018C88.5886 13.8425 82.6485 9.60309 75.9055 6.17292C68.0537 2.36325 59.3368 0.183252 50 0.043335ZM49.9937 7.48067C63.0036 7.48067 73.5499 17.5635 73.5499 30.0016C73.5499 42.4396 63.0036 52.5224 49.9937 52.5224C36.9838 52.5224 26.4374 42.4395 26.4374 30.0016C26.4374 17.5635 36.9838 7.48067 49.9937 7.48067Z" fill="white"/>
</svg>
